CalSansText-Medium.ufo
<glyph name="percent" format="2">
  <advance width="741.0"/>
  <unicode hex="0025"/>
  <outline>
    <contour>
      <point x="77.5" y="0.0" type="line"/>
      <point x="161.25" y="0.0" type="line"/>
      <point x="658.25" y="700.0" type="line"/>
      <point x="575.5" y="700.0" type="line"/>
    </contour>
    <contour>
      <point x="361.5" y="206.725" type="curve" smooth="yes"/>
      <point x="450.92499999999995" y="206.725"/>
      <point x="517.5" y="276.3"/>
      <point x="517.5" y="358.72499999999997" type="curve" smooth="yes"/>
      <point x="517.5" y="441.625"/>
      <point x="451.44999999999993" y="513.725"/>
      <point x="361.5" y="513.725" type="curve" smooth="yes"/>
      <point x="272.075" y="513.725"/>
      <point x="206.5" y="442.15"/>
      <point x="206.5" y="358.72499999999997" type="curve" smooth="yes"/>
      <point x="206.5" y="276.3"/>
      <point x="272.075" y="206.725"/>
    </contour>
    <contour>
      <point x="361.5" y="270.45" type="curve" smooth="yes"/>
      <point x="311.04999999999995" y="270.45"/>
      <point x="276.75" y="309.8"/>
      <point x="276.75" y="358.2" type="curve" smooth="yes"/>
      <point x="276.75" y="409.65"/>
      <point x="311.04999999999995" y="449.0"/>
      <point x="361.5" y="449.0" type="curve" smooth="yes"/>
      <point x="412.47499999999997" y="449.0"/>
      <point x="446.775" y="409.65"/>
      <point x="446.775" y="358.2" type="curve" smooth="yes"/>
      <point x="448.25" y="308.27500000000003"/>
      <point x="414.0" y="269.975"/>
    </contour>
    <contour>
      <point x="378.5" y="187.325" type="curve" smooth="yes"/>
      <point x="467.92499999999995" y="187.325"/>
      <point x="534.5" y="256.9"/>
      <point x="534.5" y="339.32500000000005" type="curve" smooth="yes"/>
      <point x="534.5" y="421.75"/>
      <point x="468.925" y="494.32500000000005"/>
      <point x="378.5" y="494.32500000000005" type="curve" smooth="yes"/>
      <point x="289.075" y="494.32500000000005"/>
      <point x="223.5" y="422.75"/>
      <point x="223.5" y="339.32500000000005" type="curve" smooth="yes"/>
      <point x="223.5" y="256.9"/>
      <point x="289.075" y="187.325"/>
    </contour>
    <contour>
      <point x="378.5" y="251.04999999999998" type="curve" smooth="yes"/>
      <point x="328.05" y="251.04999999999998"/>
      <point x="293.75" y="290.4"/>
      <point x="293.75" y="338.8" type="curve" smooth="yes"/>
      <point x="293.75" y="390.25"/>
      <point x="328.05" y="429.6"/>
      <point x="378.5" y="429.6" type="curve" smooth="yes"/>
      <point x="429.95" y="429.6"/>
      <point x="463.775" y="390.25"/>
      <point x="463.775" y="338.8" type="curve" smooth="yes"/>
      <point x="465.25" y="288.875"/>
      <point x="431.475" y="251.04999999999998"/>
    </contour>
  </outline>
</glyph>
<glyph name="parenleft" format="2">
  <advance width="344.9"/>
  <unicode hex="0028"/>
  <outline>
    <contour>
      <point x="213.675" y="-214.0" type="curve"/>
      <point x="301.225" y="-166.225" type="line"/>
      <point x="136.45" y="104.25"/>
      <point x="130.45" y="527.325"/>
      <point x="301.225" y="755.75" type="curve"/>
      <point x="213.675" y="803.0" type="line"/>
      <point x="27.675" y="545.0"/>
      <point x="26.674999999999997" y="65.0"/>
    </contour>
  </outline>
</glyph>
<glyph name="plus" format="2">
  <advance width="596.0"/>
  <unicode hex="002B"/>
  <outline>
    <contour>
      <point x="77.25" y="270.975" type="line"/>
      <point x="518.75" y="270.975" type="line"/>
      <point x="518.75" y="361.025" type="line"/>
      <point x="77.25" y="361.025" type="line"/>
    </contour>
    <contour>
      <point x="248.925" y="89.25" type="line"/>
      <point x="347.075" y="89.25" type="line"/>
      <point x="347.075" y="540.75" type="line"/>
      <point x="248.925" y="540.75" type="line"/>
    </contour>
  </outline>
</glyph>
<glyph name="comma" format="2">
  <advance width="259.575"/>
  <unicode hex="002C"/>
  <outline>
    <contour>
      <point x="83.45" y="-165.875" type="line"/>
      <point x="171.3" y="-134.825"/>
      <point x="216.775" y="-68.675"/>
      <point x="216.775" y="8.325" type="curve" smooth="yes"/>
      <point x="216.775" y="81.175"/>
      <point x="177.6" y="129.775"/>
      <point x="122.9" y="129.775" type="curve" smooth="yes"/>
      <point x="84.19999999999999" y="129.775"/>
      <point x="54.925" y="105.125"/>
      <point x="54.925" y="68.375" type="curve" smooth="yes"/>
      <point x="54.925" y="33.15"/>
      <point x="78.725" y="7.875"/>
      <point x="109.94999999999999" y="7.875" type="curve" smooth="yes"/>
      <point x="123.05" y="7.875"/>
      <point x="132.95" y="11.875"/>
      <point x="141.0" y="20.025" type="curve"/>
      <point x="143.52499999999998" y="20.025" type="line"/>
      <point x="145.05" y="15.45"/>
      <point x="145.575" y="10.349999999999998"/>
      <point x="145.575" y="1.299999999999999" type="curve" smooth="yes"/>
      <point x="145.575" y="-53.65"/>
      <point x="107.8" y="-83.9"/>
      <point x="57.925" y="-104.05000000000001" type="curve"/>
    </contour>
  </outline>
</glyph>
<glyph name="X" format="2">
  <advance width="655.925"/>
  <unicode hex="0058"/>
  <anchor x="328.225" y="0.0" name="bottom"/>
  <anchor x="328.225" y="700.0" name="top"/>
  <outline>
    <contour>
      <point x="21.05" y="0.0" type="line"/>
      <point x="153.975" y="0.0" type="line"/>
      <point x="328.225" y="260.725" type="line"/>
      <point x="332.225" y="260.725" type="line"/>
      <point x="502.475" y="0.0" type="line"/>
      <point x="637.875" y="0.0" type="line"/>
      <point x="398.425" y="348.0" type="line"/>
      <point x="626.875" y="700.0" type="line"/>
      <point x="497.475" y="700.0" type="line"/>
      <point x="332.225" y="438.75" type="line"/>
      <point x="328.225" y="438.75" type="line"/>
      <point x="165.975" y="700.0" type="line"/>
      <point x="32.05" y="700.0" type="line"/>
      <point x="261.55" y="351.0" type="line"/>
    </contour>
  </outline>
</glyph>
<glyph name="braceleft" format="2">
  <advance width="447.625"/>
  <unicode hex="007B"/>
  <outline>
    <contour>
      <point x="327.15" y="-224.0" type="curve" smooth="yes"/>
      <point x="345.25" y="-224.0"/>
      <point x="365.2" y="-223.0"/>
      <point x="386.57500000000005" y="-220.0" type="curve"/>
      <point x="386.57500000000005" y="-135.05" type="line"/>
      <point x="375.32500000000005" y="-137.625"/>
      <point x="364.65" y="-139.15"/>
      <point x="349.725" y="-139.15" type="curve" smooth="yes"/>
      <point x="297.75" y="-139.15"/>
      <point x="271.075" y="-107.95"/>
      <point x="271.075" y="-55.0" type="curve" smooth="yes"/>
      <point x="271.075" y="127.0" type="line" smooth="yes"/>
      <point x="271.075" y="241.0"/>
      <point x="178.075" y="270.0"/>
      <point x="160.075" y="272.0" type="curve"/>
      <point x="160.075" y="279.0" type="line"/>
      <point x="178.075" y="281.0"/>
      <point x="271.075" y="310.0"/>
      <point x="271.075" y="424.0" type="curve" smooth="yes"/>
      <point x="271.075" y="585.0" type="line" smooth="yes"/>
      <point x="271.075" y="637.95"/>
      <point x="297.75" y="669.1500000000001"/>
      <point x="349.725" y="669.1500000000001" type="curve" smooth="yes"/>
      <point x="364.65" y="669.1500000000001"/>
      <point x="375.32500000000005" y="667.625"/>
      <point x="386.57500000000005" y="665.05" type="curve"/>
      <point x="386.57500000000005" y="750.0" type="line"/>
      <point x="365.2" y="753.0"/>
      <point x="345.25" y="754.0"/>
      <point x="327.15" y="754.0" type="curve" smooth="yes"/>
      <point x="223.575" y="754.0"/>
      <point x="173.575" y="686.0"/>
      <point x="173.575" y="593.0" type="curve" smooth="yes"/>
      <point x="173.575" y="428.0" type="line" smooth="yes"/>
      <point x="173.575" y="362.625"/>
      <point x="146.575" y="327.625"/>
      <point x="66.575" y="322.675" type="curve"/>
      <point x="66.575" y="227.85" type="line"/>
      <point x="143.575" y="223.95"/>
      <point x="173.575" y="190.425"/>
      <point x="173.575" y="122.0" type="curve" smooth="yes"/>
      <point x="173.575" y="-63.0" type="line" smooth="yes"/>
      <point x="173.575" y="-156.0"/>
      <point x="223.575" y="-224.0"/>
    </contour>
  </outline>
</glyph>
<glyph name="brokenbar" format="2">
  <advance width="259.65"/>
  <unicode hex="00A6"/>
  <outline>
    <contour>
      <point x="83.67500000000001" y="375.0" type="line"/>
      <point x="175.975" y="375.0" type="line"/>
      <point x="175.975" y="900.0" type="line"/>
      <point x="83.67500000000001" y="900.0" type="line"/>
      <point x="83.67500000000001" y="535.0" type="line"/>
    </contour>
    <contour>
      <point x="175.975" y="305.0" type="line"/>
      <point x="83.67500000000001" y="305.0" type="line"/>
      <point x="83.67500000000001" y="3.0" type="line"/>
      <point x="83.67500000000001" y="-220.0" type="line"/>
      <point x="175.975" y="-220.0" type="line"/>
    </contour>
  </outline>
</glyph>
<glyph name="eth" format="2">
  <advance width="593.0"/>
  <unicode hex="00F0"/>
  <outline>
    <contour>
      <point x="388.725" y="475.375" type="curve"/>
      <point x="383.25" y="471.9" type="line"/>
      <point x="349.375" y="499.17499999999995"/>
      <point x="310.35" y="506.79999999999995"/>
      <point x="276.525" y="506.79999999999995" type="curve" smooth="yes"/>
      <point x="148.5" y="506.79999999999995"/>
      <point x="37.900000000000006" y="396.55"/>
      <point x="37.900000000000006" y="243.075" type="curve" smooth="yes"/>
      <point x="37.900000000000006" y="99.425"/>
      <point x="140.55" y="-13.0"/>
      <point x="289.65" y="-13.0" type="curve" smooth="yes"/>
      <point x="442.725" y="-13.0"/>
      <point x="555.0999999999999" y="93.65"/>
      <point x="555.0999999999999" y="253.04999999999998" type="curve" smooth="yes"/>
      <point x="555.0999999999999" y="443.575"/>
      <point x="415.9" y="675.125"/>
      <point x="229.45" y="825.0" type="curve"/>
      <point x="153.975" y="752.9" type="line"/>
      <point x="261.375" y="665.45"/>
      <point x="322.275" y="597.825"/>
    </contour>
    <contour>
      <point x="294.92499999999995" y="84.275" type="curve" smooth="yes"/>
      <point x="204.75" y="84.275"/>
      <point x="144.025" y="152.4"/>
      <point x="144.025" y="248.325" type="curve" smooth="yes"/>
      <point x="144.025" y="345.25"/>
      <point x="208.425" y="412.85"/>
      <point x="294.92499999999995" y="412.85" type="curve" smooth="yes"/>
      <point x="385.1" y="412.85"/>
      <point x="446.35" y="344.725"/>
      <point x="446.35" y="248.325" type="curve" smooth="yes"/>
      <point x="446.35" y="151.35000000000002"/>
      <point x="385.1" y="84.275"/>
    </contour>
    <contour>
      <point x="159.3" y="536.975" type="line"/>
      <point x="503.5" y="652.225" type="line"/>
      <point x="503.5" y="744.025" type="line"/>
      <point x="341.45" y="689.25" type="line"/>
      <point x="296.95" y="669.65" type="line"/>
      <point x="159.3" y="625.45" type="line"/>
    </contour>
  </outline>
</glyph>
<glyph name="Dcroat" format="2">
  <advance width="723.4"/>
  <unicode hex="0110"/>
  <anchor x="333.25" y="0.0" name="bottom"/>
  <anchor x="138.45" y="349.0" name="center"/>
  <anchor x="351.25" y="700.0" name="top"/>
  <outline>
    <contour>
      <point x="12.100000000000001" y="311.275" type="line"/>
      <point x="367.95000000000005" y="311.275" type="line"/>
      <point x="367.95000000000005" y="403.975" type="line"/>
      <point x="12.100000000000001" y="403.975" type="line"/>
    </contour>
    <component base="D"/>
  </outline>
</glyph>
<glyph name="Eng" format="2">
  <advance width="764.9749999999999"/>
  <unicode hex="014A"/>
  <anchor x="389.75" y="0.0" name="bottom"/>
  <anchor x="670.75" y="0.0" name="ogonek"/>
  <anchor x="380.75" y="700.0" name="top"/>
  <outline>
    <contour>
      <point x="487.35" y="-231.1" type="curve" smooth="yes"/>
      <point x="613.175" y="-229.52499999999998"/>
      <point x="683.925" y="-160.525"/>
      <point x="683.925" y="-25.975" type="curve" smooth="yes"/>
      <point x="683.925" y="0.0" type="line"/>
      <point x="579.65" y="161.89999999999998" type="line"/>
      <point x="579.65" y="-28.675" type="line" smooth="yes"/>
      <point x="579.65" y="-90.95"/>
      <point x="543.45" y="-126.82499999999999"/>
      <point x="492.425" y="-126.82499999999999" type="curve" smooth="yes"/>
      <point x="458.475" y="-126.82499999999999"/>
      <point x="431.42499999999995" y="-113.60000000000001"/>
      <point x="412.275" y="-89.975" type="curve"/>
      <point x="341.025" y="-180.3" type="line"/>
      <point x="378.025" y="-215.875"/>
      <point x="428.925" y="-231.625"/>
    </contour>
    <component base="N"/>
  </outline>
</glyph>
<glyph name="minute" format="2">
  <advance width="294.35"/>
  <unicode hex="2032"/>
  <outline>
    <contour>
      <point x="88.67500000000001" y="433.0" type="line"/>
      <point x="149.175" y="433.0" type="line"/>
      <point x="230.675" y="700.0" type="line"/>
      <point x="100.675" y="700.0" type="line"/>
    </contour>
  </outline>
</glyph>
<glyph name="interrobang" format="2">
  <advance width="525.825"/>
  <unicode hex="203D"/>
  <outline>
    <contour>
      <point x="214.05" y="176.25" type="line"/>
      <point x="291.475" y="176.25" type="line"/>
      <point x="298.525" y="338.125" type="line"/>
      <point x="271.2" y="277.725" type="line"/>
      <point x="332.125" y="332.54999999999995" type="line"/>
      <point x="297.425" y="377.9" type="line"/>
      <point x="300.95" y="388.9"/>
      <point x="302.95000000000005" y="395.9"/>
      <point x="302.95000000000005" y="407.9" type="curve" smooth="yes"/>
      <point x="308.0" y="557.15" type="line"/>
      <point x="197.575" y="557.15" type="line"/>
    </contour>
    <contour>
      <point x="256.6" y="300.1" type="line"/>
      <point x="394.79999999999995" y="300.1"/>
      <point x="484.775" y="387.0"/>
      <point x="484.775" y="506.0" type="curve" smooth="yes"/>
      <point x="484.775" y="624.0"/>
      <point x="394.79999999999995" y="713.0"/>
      <point x="259.8" y="713.0" type="curve" smooth="yes"/>
      <point x="128.8" y="713.0"/>
      <point x="32.425" y="632.0"/>
      <point x="32.425" y="500.0" type="curve"/>
      <point x="138.475" y="500.0" type="line"/>
      <point x="138.475" y="575.45"/>
      <point x="185.77499999999998" y="622.225"/>
      <point x="260.275" y="622.225" type="curve" smooth="yes"/>
      <point x="333.04999999999995" y="622.225"/>
      <point x="378.725" y="571.925"/>
      <point x="378.725" y="491.9" type="curve" smooth="yes"/>
      <point x="378.725" y="420.92499999999995"/>
      <point x="331.475" y="376.1"/>
      <point x="256.6" y="376.1" type="curve"/>
    </contour>
    <component base="period" xOffset="128.825"/>
  </outline>
</glyph>
<glyph name="fraction" format="2">
  <advance width="590.65"/>
  <unicode hex="2044"/>
  <outline>
    <contour>
      <point x="-60.724999999999994" y="0.0" type="line"/>
      <point x="34.85" y="0.0" type="line"/>
      <point x="651.85" y="700.0" type="line"/>
      <point x="556.2750000000001" y="700.0" type="line"/>
    </contour>
  </outline>
</glyph>
<glyph name="colonsign" format="2">
  <advance width="639.85"/>
  <unicode hex="20A1"/>
  <outline>
    <contour>
      <point x="371.225" y="27.0" type="curve" smooth="yes"/>
      <point x="485.6" y="27.0"/>
      <point x="563.0" y="69.25"/>
      <point x="618.375" y="136.1" type="curve"/>
      <point x="541.475" y="201.10000000000002" type="line"/>
      <point x="488.45" y="139.225"/>
      <point x="447.45" y="124.65"/>
      <point x="375.275" y="124.65" type="curve" smooth="yes"/>
      <point x="231.35" y="124.65"/>
      <point x="148.85" y="234.85"/>
      <point x="148.85" y="352.575" type="curve" smooth="yes"/>
      <point x="148.85" y="454.6"/>
      <point x="218.8" y="575.35"/>
      <point x="371.75" y="575.35" type="curve" smooth="yes"/>
      <point x="438.4" y="575.35"/>
      <point x="490.85" y="557.05"/>
      <point x="537.8" y="501.0" type="curve"/>
      <point x="614.7" y="571.375" type="line"/>
      <point x="544.0" y="644.325"/>
      <point x="475.225" y="673.0"/>
      <point x="371.225" y="673.0" type="curve" smooth="yes"/>
      <point x="170.475" y="673.0"/>
      <point x="41.475" y="524.75"/>
      <point x="41.475" y="349.0" type="curve" smooth="yes"/>
      <point x="41.475" y="174.25"/>
      <point x="178.475" y="27.0"/>
    </contour>
    <contour>
      <point x="426.85" y="-69.0" type="line"/>
      <point x="514.85" y="775.0" type="line"/>
      <point x="436.67499999999995" y="775.0" type="line"/>
      <point x="348.675" y="-69.0" type="line"/>
    </contour>
    <contour>
      <point x="276.275" y="-69.0" type="line"/>
      <point x="364.275" y="775.0" type="line"/>
      <point x="286.1" y="775.0" type="line"/>
      <point x="198.1" y="-69.0" type="line"/>
    </contour>
  </outline>
</glyph>
<glyph name="guarani" format="2">
  <advance width="724.7"/>
  <unicode hex="20B2"/>
  <anchor x="370.95" y="653.0" name="_TopCurrency"/>
  <anchor x="371.8" y="41.425" name="bottom"/>
  <anchor x="493.22499999999997" y="49.425" name="ogonek"/>
  <anchor x="371.8" y="663.9" name="top"/>
  <outline>
    <contour>
      <point x="370.85" y="27.525" type="curve" smooth="yes"/>
      <point x="556.975" y="27.525"/>
      <point x="683.2249999999999" y="152.475"/>
      <point x="683.2249999999999" y="325.0" type="curve" smooth="yes"/>
      <point x="683.2249999999999" y="342.375"/>
      <point x="681.75" y="363.54999999999995"/>
      <point x="679.275" y="377.875" type="curve"/>
      <point x="338.85" y="377.875" type="line"/>
      <point x="338.85" y="286.225" type="line"/>
      <point x="605.3" y="289.125" type="line"/>
      <point x="575.2" y="308.225" type="line"/>
      <point x="569.875" y="191.325"/>
      <point x="485.42499999999995" y="129.75"/>
      <point x="372.79999999999995" y="129.75" type="curve" smooth="yes"/>
      <point x="247.05" y="129.75"/>
      <point x="152.55" y="217.875"/>
      <point x="152.55" y="350.0" type="curve" smooth="yes"/>
      <point x="152.55" y="482.125"/>
      <point x="246.6" y="572.25"/>
      <point x="372.79999999999995" y="572.25" type="curve" smooth="yes"/>
      <point x="441.75" y="572.25"/>
      <point x="494.45" y="557.675"/>
      <point x="537.925" y="509.47499999999997" type="curve"/>
      <point x="613.5" y="575.05" type="line"/>
      <point x="546.65" y="644.95"/>
      <point x="471.225" y="673.0"/>
      <point x="370.85" y="673.0" type="curve" smooth="yes"/>
      <point x="179.95" y="673.0"/>
      <point x="41.475" y="530.625"/>
      <point x="41.475" y="350.0" type="curve" smooth="yes"/>
      <point x="41.475" y="169.9"/>
      <point x="182.05" y="27.525"/>
    </contour>
    <component base="verticalTopCurrencycomb" xOffset="370.95"/>
    <component base="verticalBottomCurrencycomb" xOffset="370.95"/>
  </outline>
</glyph>
<glyph name="lari" format="2">
  <advance width="705.725"/>
  <unicode hex="20BE"/>
  <outline>
    <contour>
      <point x="579.2249999999999" y="395.525" type="curve"/>
      <point x="692.2" y="395.525" type="line"/>
      <point x="669.7249999999999" y="563.175"/>
      <point x="530.925" y="673.0"/>
      <point x="369.125" y="673.0" type="curve" smooth="yes"/>
      <point x="189.8" y="673.0"/>
      <point x="43.05" y="538.075"/>
      <point x="43.05" y="362.675" type="curve" smooth="yes"/>
      <point x="43.05" y="268.65"/>
      <point x="86.6" y="181.3"/>
      <point x="177.5" y="135.6" type="curve"/>
      <point x="177.5" y="133.075" type="line"/>
      <point x="21.05" y="133.075" type="line"/>
      <point x="21.05" y="30.0" type="line"/>
      <point x="658.4" y="30.0" type="line"/>
      <point x="658.4" y="133.075" type="line"/>
      <point x="409.5" y="133.075" type="line" smooth="yes"/>
      <point x="254.32500000000002" y="133.075"/>
      <point x="155.075" y="220.4"/>
      <point x="155.075" y="362.675" type="curve" smooth="yes"/>
      <point x="155.075" y="500.475"/>
      <point x="256.325" y="569.45"/>
      <point x="369.125" y="569.45" type="curve" smooth="yes"/>
      <point x="465.925" y="569.45"/>
      <point x="559.2249999999999" y="520.1"/>
    </contour>
    <contour>
      <point x="391.75" y="775.0" type="line"/>
      <point x="391.75" y="395.0" type="line"/>
      <point x="471.25" y="395.0" type="line"/>
      <point x="471.25" y="775.0" type="line"/>
    </contour>
    <contour>
      <point x="261.25" y="775.0" type="line"/>
      <point x="261.25" y="395.0" type="line"/>
      <point x="340.75" y="395.0" type="line"/>
      <point x="340.75" y="775.0" type="line"/>
    </contour>
  </outline>
</glyph>
<glyph name="literSign" format="2">
  <advance width="503.6"/>
  <unicode hex="2113"/>
  <outline>
    <contour>
      <point x="82.75" y="123.57499999999999"/>
      <point x="146.15" y="-12.05"/>
      <point x="306.35" y="-12.05" type="curve" smooth="yes"/>
      <point x="395.1" y="-12.05"/>
      <point x="460.65" y="57.075"/>
      <point x="493.6" y="149.625" type="curve"/>
      <point x="434.29999999999995" y="185.64999999999998" type="line"/>
      <point x="401.92499999999995" y="100.225"/>
      <point x="353.5" y="79.275"/>
      <point x="310.775" y="79.275" type="curve" smooth="yes"/>
      <point x="213.77499999999998" y="79.275"/>
      <point x="189.875" y="190.3"/>
      <point x="189.875" y="283.85" type="curve" smooth="yes"/>
      <point x="189.875" y="356.3"/>
      <point x="203.925" y="441.275"/>
      <point x="226.97500000000002" y="522.425" type="curve" smooth="yes"/>
      <point x="245.075" y="584.7750000000001"/>
      <point x="274.375" y="612.45"/>
      <point x="298.15" y="612.45" type="curve" smooth="yes"/>
      <point x="351.775" y="612.45"/>
      <point x="346.5" y="540.0"/>
      <point x="334.875" y="498.025" type="curve" smooth="yes"/>
      <point x="287.775" y="342.2"/>
      <point x="168.89999999999998" y="255.275"/>
      <point x="2.0" y="139.85" type="curve"/>
      <point x="47.5" y="79.075" type="line"/>
      <point x="216.60000000000002" y="195.65"/>
      <point x="363.075" y="294.775"/>
      <point x="419.975" y="482.95000000000005" type="curve" smooth="yes"/>
      <point x="452.875" y="590.925"/>
      <point x="425.6" y="714.525"/>
      <point x="298.20000000000005" y="714.525" type="curve" smooth="yes"/>
      <point x="229.45" y="714.525"/>
      <point x="156.225" y="664.675"/>
      <point x="123.325" y="550.025" type="curve" smooth="yes"/>
      <point x="99.8" y="466.92499999999995"/>
      <point x="82.75" y="372.625"/>
      <point x="82.75" y="286.32500000000005" type="curve" smooth="yes"/>
    </contour>
  </outline>
</glyph>
<glyph name="increment" format="2">
  <advance width="718.15"/>
  <unicode hex="2206"/>
  <outline>
    <contour>
      <point x="12.05" y="0.0" type="line"/>
      <point x="706.1" y="0.0" type="line"/>
      <point x="397.375" y="700.0" type="line"/>
      <point x="318.875" y="700.0" type="line"/>
    </contour>
    <contour>
      <point x="145.075" y="60.575" type="line"/>
      <point x="349.65" y="563.45" type="line" smooth="yes"/>
      <point x="351.65" y="567.975"/>
      <point x="354.175" y="574.0250000000001"/>
      <point x="355.7" y="580.075" type="curve"/>
      <point x="359.225" y="580.075" type="line"/>
      <point x="360.225" y="574.0250000000001"/>
      <point x="363.275" y="567.975"/>
      <point x="365.275" y="563.45" type="curve" smooth="yes"/>
      <point x="569.175" y="60.575" type="line"/>
      <point x="587.6" y="89.35" type="line"/>
      <point x="126.125" y="89.35" type="line"/>
    </contour>
  </outline>
</glyph>
<glyph name="product" format="2">
  <advance width="665.35"/>
  <unicode hex="220F"/>
  <outline>
    <contour>
      <point x="436.525" y="-220.0" type="line"/>
      <point x="528.825" y="-220.0" type="line"/>
      <point x="528.825" y="700.0" type="line"/>
      <point x="436.525" y="700.0" type="line"/>
    </contour>
    <contour>
      <point x="136.525" y="-220.0" type="line"/>
      <point x="228.825" y="-220.0" type="line"/>
      <point x="228.825" y="700.0" type="line"/>
      <point x="136.525" y="700.0" type="line"/>
    </contour>
    <contour>
      <point x="43.675" y="617.3" type="line"/>
      <point x="621.675" y="617.3" type="line"/>
      <point x="621.675" y="700.0" type="line"/>
      <point x="43.675" y="700.0" type="line"/>
    </contour>
  </outline>
</glyph>
<glyph name="minus" format="2">
  <advance width="596.0"/>
  <unicode hex="2212"/>
  <outline>
    <contour>
      <point x="73.92500000000001" y="270.975" type="line"/>
      <point x="515.425" y="270.975" type="line"/>
      <point x="515.425" y="361.025" type="line"/>
      <point x="73.92500000000001" y="361.025" type="line"/>
    </contour>
  </outline>
</glyph>
<glyph name="rightWhiteSmallTriangle" format="2">
  <advance width="330.875"/>
  <unicode hex="25B9"/>
  <outline>
    <contour>
      <point x="90.0" y="235.825" type="line"/>
      <point x="306.125" y="360.95" type="line"/>
      <point x="90.0" y="485.07500000000005" type="line"/>
    </contour>
    <contour>
      <point x="135.5" y="406.45" type="line"/>
      <point x="218.45" y="360.95" type="line"/>
      <point x="135.5" y="315.45" type="line"/>
    </contour>
  </outline>
</glyph>
<glyph name="fl" format="2">
  <advance width="612.95"/>
  <unicode hex="FB02"/>
  <anchor x="166.875" y="0.0" name="bottom_1"/>
  <anchor x="259.57500000000005" y="740.0" name="top_1"/>
  <anchor x="489.075" y="0.0" name="bottom_2"/>
  <anchor x="489.075" y="393.0" name="center_2"/>
  <anchor x="541.9000000000001" y="0.0" name="ogonek_2"/>
  <anchor x="489.075" y="740.0" name="top_2"/>
  <anchor x="591.9000000000001" y="740.0" name="topright_2"/>
  <anchor x="392.0" y="0.0" name="caret_1"/>
  <outline>
    <contour>
      <point x="18.9" y="402.32500000000005" type="line"/>
      <point x="531.9000000000001" y="402.32500000000005" type="line"/>
      <point x="541.9000000000001" y="497.125" type="line"/>
      <point x="18.9" y="497.125" type="line"/>
    </contour>
    <component base="f"/>
    <component base="l" xOffset="364.725"/>
  </outline>
</glyph>
<glyph name="C.ss10" format="2">
  <advance width="585.95"/>
  <anchor x="403.75" y="0.0" name="bottom"/>
  <anchor x="506.75" y="0.0" name="ogonek"/>
  <anchor x="403.75" y="700.0" name="top"/>
  <outline>
    <contour>
      <point x="401.85" y="-13.0" type="curve" smooth="yes"/>
      <point x="458.95000000000005" y="-13.0"/>
      <point x="508.525" y="-3.425"/>
      <point x="554.0" y="19.0" type="curve"/>
      <point x="562.375" y="146.875" type="line"/>
      <point x="519.425" y="112.45"/>
      <point x="469.0" y="96.45"/>
      <point x="404.375" y="96.45" type="curve" smooth="yes"/>
      <point x="260.975" y="96.45"/>
      <point x="156.025" y="200.52499999999998"/>
      <point x="156.025" y="349.0" type="curve" smooth="yes"/>
      <point x="156.025" y="496.0"/>
      <point x="252.875" y="603.55"/>
      <point x="401.85" y="603.55" type="curve" smooth="yes"/>
      <point x="463.85" y="603.55"/>
      <point x="518.9" y="586.65"/>
      <point x="564.0" y="544.75" type="curve"/>
      <point x="564.0" y="673.5250000000001" type="line"/>
      <point x="519.8" y="700.05"/>
      <point x="463.375" y="713.0"/>
      <point x="401.85" y="713.0" type="curve" smooth="yes"/>
      <point x="192.14999999999998" y="713.0"/>
      <point x="41.475" y="551.575"/>
      <point x="41.475" y="349.0" type="curve" smooth="yes"/>
      <point x="41.475" y="146.89999999999998"/>
      <point x="197.0" y="-13.0"/>
    </contour>
  </outline>
</glyph>
<glyph name="c.ss10" format="2">
  <advance width="445.8"/>
  <anchor x="286.925" y="0.0" name="bottom"/>
  <anchor x="387.525" y="0.0" name="ogonek"/>
  <anchor x="286.925" y="497.125" name="top"/>
  <outline>
    <contour>
      <point x="308.5" y="-13.475" type="curve" smooth="yes"/>
      <point x="340.05" y="-13.475"/>
      <point x="374.85" y="-6.525"/>
      <point x="413.575" y="8.0" type="curve"/>
      <point x="419.625" y="122.925" type="line"/>
      <point x="383.325" y="97.6"/>
      <point x="349.05" y="87.8"/>
      <point x="310.6" y="87.8" type="curve" smooth="yes"/>
      <point x="217.925" y="87.8"/>
      <point x="144.025" y="151.875"/>
      <point x="144.025" y="249.27499999999998" type="curve" smooth="yes"/>
      <point x="144.025" y="344.675"/>
      <point x="215.825" y="408.32500000000005"/>
      <point x="308.5" y="408.32500000000005" type="curve" smooth="yes"/>
      <point x="351.675" y="408.32500000000005"/>
      <point x="385.225" y="398.2"/>
      <point x="416.2" y="379.15" type="curve"/>
      <point x="416.2" y="490.225" type="line"/>
      <point x="387.45" y="501.075"/>
      <point x="350.025" y="510.125"/>
      <point x="306.925" y="510.125" type="curve" smooth="yes"/>
      <point x="147.125" y="510.125"/>
      <point x="37.900000000000006" y="400.15"/>
      <point x="37.900000000000006" y="249.27499999999998" type="curve" smooth="yes"/>
      <point x="37.900000000000006" y="97.4"/>
      <point x="148.175" y="-13.475"/>
    </contour>
  </outline>
</glyph>
<glyph name="germandbls.ss10" format="2">
  <advance width="673.575"/>
  <outline>
    <contour>
      <point x="18.425" y="402.32500000000005" type="line"/>
      <point x="166.75" y="402.32500000000005" type="line"/>
      <point x="166.75" y="497.125" type="line"/>
      <point x="18.425" y="497.125" type="line"/>
    </contour>
    <component base="germandbls" xOffset="47.325"/>
  </outline>
</glyph>
<glyph name="hungarumlautcomb.case" format="2">
  <anchor x="0.0" y="700.0" name="_top"/>
  <outline>
    <contour>
      <point x="37.275" y="740.0" type="line"/>
      <point x="96.875" y="740.0" type="line"/>
      <point x="192.95" y="853.0" type="line"/>
      <point x="80.225" y="853.0" type="line"/>
    </contour>
    <contour>
      <point x="-96.875" y="740.0" type="line"/>
      <point x="-37.275" y="740.0" type="line"/>
      <point x="58.8" y="853.0" type="line"/>
      <point x="-53.925" y="853.0" type="line"/>
    </contour>
  </outline>
</glyph>
<glyph name="rupee.tf" format="2">
  <advance width="596.0"/>
  <outline>
    <contour>
      <point x="429.1" y="17.0" type="curve" smooth="yes"/>
      <point x="496.075" y="17.0"/>
      <point x="568.9" y="65.35"/>
      <point x="568.9" y="155.125" type="curve" smooth="yes"/>
      <point x="568.9" y="293.175"/>
      <point x="421.125" y="277.275"/>
      <point x="421.125" y="361.75" type="curve" smooth="yes"/>
      <point x="421.125" y="387.85"/>
      <point x="438.225" y="403.575"/>
      <point x="461.42499999999995" y="403.575" type="curve" smooth="yes"/>
      <point x="480.1" y="403.575"/>
      <point x="494.67499999999995" y="387.475"/>
      <point x="502.25" y="359.9" type="curve"/>
      <point x="576.8" y="401.125" type="line"/>
      <point x="552.9749999999999" y="461.42499999999995"/>
      <point x="511.075" y="484.875"/>
      <point x="461.17499999999995" y="484.875" type="curve" smooth="yes"/>
      <point x="388.0" y="484.875"/>
      <point x="336.2" y="435.55"/>
      <point x="336.2" y="355.225" type="curve" smooth="yes"/>
      <point x="336.2" y="227.375"/>
      <point x="483.97499999999997" y="241.8"/>
      <point x="483.97499999999997" y="150.5" type="curve" smooth="yes"/>
      <point x="483.97499999999997" y="117.82499999999999"/>
      <point x="460.25" y="98.82499999999999"/>
      <point x="428.625" y="98.82499999999999" type="curve" smooth="yes"/>
      <point x="397.42499999999995" y="98.82499999999999"/>
      <point x="374.125" y="118.55"/>
      <point x="344.25" y="153.89999999999998" type="curve" smooth="yes"/>
      <point x="195.425" y="333.325" type="line"/>
      <point x="141.95" y="288.5" type="line"/>
      <point x="234.47500000000002" y="289.025"/>
      <point x="324.375" y="347.95000000000005"/>
      <point x="324.375" y="475.4" type="curve" smooth="yes"/>
      <point x="324.375" y="609.6"/>
      <point x="234.0" y="670.0"/>
      <point x="135.1" y="670.0" type="curve" smooth="yes"/>
      <point x="19.200000000000003" y="670.0" type="line"/>
      <point x="19.200000000000003" y="30.0" type="line"/>
      <point x="108.925" y="30.0" type="line"/>
      <point x="108.925" y="284.65" type="line"/>
      <point x="124.025" y="284.65" type="line"/>
      <point x="132.275" y="264.775"/>
      <point x="145.325" y="245.15"/>
      <point x="161.05" y="228.425" type="curve" smooth="yes"/>
      <point x="263.9" y="113.3" type="line" smooth="yes"/>
      <point x="324.825" y="45.425"/>
      <point x="359.45000000000005" y="17.0"/>
    </contour>
    <contour>
      <point x="108.925" y="369.0" type="line"/>
      <point x="108.925" y="583.275" type="line"/>
      <point x="134.14999999999998" y="583.275" type="line" smooth="yes"/>
      <point x="192.45" y="583.275"/>
      <point x="232.075" y="557.0999999999999"/>
      <point x="232.075" y="474.45000000000005" type="curve" smooth="yes"/>
      <point x="232.075" y="395.275"/>
      <point x="192.925" y="369.0"/>
      <point x="135.1" y="369.0" type="curve" smooth="yes"/>
    </contour>
  </outline>
</glyph>
<glyph name="slashlongcomb.case" format="2">
  <anchor x="380.0" y="361.0" name="_center"/>
  <outline>
    <contour>
      <point x="21.400000000000002" y="-40.0" type="line"/>
      <point x="116.075" y="-40.0" type="line"/>
      <point x="727.5999999999999" y="748.0" type="line"/>
      <point x="632.925" y="748.0" type="line"/>
    </contour>
  </outline>
</glyph>
<glyph name="tittle" format="2">
  <advance width="248.175"/>
  <outline>
    <contour>
      <point x="124.35" y="589.25" type="curve" smooth="yes"/>
      <point x="162.425" y="589.25"/>
      <point x="190.125" y="617.95"/>
      <point x="190.125" y="654.55" type="curve" smooth="yes"/>
      <point x="190.125" y="689.675"/>
      <point x="162.425" y="718.85"/>
      <point x="124.35" y="718.85" type="curve" smooth="yes"/>
      <point x="86.225" y="718.85"/>
      <point x="58.05" y="689.675"/>
      <point x="58.05" y="654.55" type="curve" smooth="yes"/>
      <point x="58.05" y="618.425"/>
      <point x="86.225" y="589.25"/>
    </contour>
  </outline>
</glyph>
<glyph name="won.tf" format="2">
  <advance width="596.0"/>
  <outline>
    <contour>
      <point x="109.825" y="30.0" type="line"/>
      <point x="226.5" y="30.0" type="line"/>
      <point x="290.9" y="421.95" type="line" smooth="yes"/>
      <point x="300.95" y="482.9"/>
      <point x="302.0" y="513.375"/>
      <point x="303.525" y="543.85" type="curve"/>
      <point x="305.525" y="543.85" type="line"/>
      <point x="307.575" y="513.375"/>
      <point x="310.57500000000005" y="482.9"/>
      <point x="318.625" y="421.95" type="curve" smooth="yes"/>
      <point x="370.55" y="30.0" type="line"/>
      <point x="486.125" y="30.0" type="line"/>
      <point x="576.75" y="670.0" type="line"/>
      <point x="481.02500000000003" y="670.0" type="line"/>
      <point x="441.57500000000005" y="283.04999999999995" type="line" smooth="yes"/>
      <point x="435.0" y="218.1"/>
      <point x="434.95000000000005" y="176.625"/>
      <point x="433.475" y="145.15" type="curve"/>
      <point x="430.425" y="145.15" type="line"/>
      <point x="427.95" y="176.625"/>
      <point x="421.8" y="218.1"/>
      <point x="413.275" y="283.04999999999995" type="curve" smooth="yes"/>
      <point x="359.6" y="670.0" type="line"/>
      <point x="245.65" y="670.0" type="line"/>
      <point x="188.25" y="283.04999999999995" type="line" smooth="yes"/>
      <point x="178.675" y="218.1"/>
      <point x="172.05" y="176.625"/>
      <point x="168.525" y="145.15" type="curve"/>
      <point x="167.0" y="145.15" type="line"/>
      <point x="164.52499999999998" y="176.625"/>
      <point x="161.47500000000002" y="218.1"/>
      <point x="154.9" y="283.04999999999995" type="curve" smooth="yes"/>
      <point x="114.4" y="670.0" type="line"/>
      <point x="19.25" y="670.0" type="line"/>
    </contour>
    <contour>
      <point x="8.25" y="312.3" type="line"/>
      <point x="587.75" y="312.3" type="line"/>
      <point x="587.75" y="382.85" type="line"/>
      <point x="8.25" y="382.85" type="line"/>
    </contour>
  </outline>
</glyph>
<glyph name="zero.numr" format="2">
  <advance width="355.95"/>
  <outline>
    <contour>
      <point x="177.975" y="308.0" type="curve" smooth="yes"/>
      <point x="258.5" y="308.0"/>
      <point x="320.1" y="367.575"/>
      <point x="320.1" y="452.75" type="curve" smooth="yes"/>
      <point x="320.1" y="564.4" type="line" smooth="yes"/>
      <point x="320.1" y="642.75"/>
      <point x="262.7" y="706.0"/>
      <point x="177.975" y="706.0" type="curve" smooth="yes"/>
      <point x="99.275" y="706.0"/>
      <point x="35.849999999999994" y="647.35"/>
      <point x="35.849999999999994" y="563.3499999999999" type="curve" smooth="yes"/>
      <point x="35.849999999999994" y="450.65" type="line" smooth="yes"/>
      <point x="35.849999999999994" y="372.125"/>
      <point x="93.275" y="308.0"/>
    </contour>
    <contour>
      <point x="177.975" y="370.775" type="curve" smooth="yes"/>
      <point x="130.3" y="370.775"/>
      <point x="105.575" y="408.825"/>
      <point x="105.575" y="458.075" type="curve" smooth="yes"/>
      <point x="105.575" y="558.5999999999999" type="line" smooth="yes"/>
      <point x="105.575" y="606.75"/>
      <point x="128.875" y="643.225"/>
      <point x="177.975" y="643.225" type="curve" smooth="yes"/>
      <point x="227.02499999999998" y="643.225"/>
      <point x="250.85000000000002" y="606.5999999999999"/>
      <point x="250.85000000000002" y="557.55" type="curve" smooth="yes"/>
      <point x="250.85000000000002" y="457.025" type="line" smooth="yes"/>
      <point x="250.85000000000002" y="408.35"/>
      <point x="226.125" y="370.775"/>
    </contour>
  </outline>
</glyph>
